<?xml version="1.0" encoding="utf-8"?>
<svg viewBox="0 0 50 50" xmlns="http://www.w3.org/2000/svg">
  <path style="text-indent: 0px; text-align: start; line-height: normal; text-transform: none; transform-box: fill-box; transform-origin: 50% 50%;" d="M 25 2 C 17.982 2 12.622 3.096 8.969 4.438 C 7.142 5.108 5.742 5.848 4.75 6.563 C 4.254 6.92 3.866 7.247 3.563 7.625 C 3.259 8.003 3 8.432 3 9 C 3 9.084 3.01 9.168 3.031 9.25 L 4.75 16.25 C 4.789 16.376 4.853 16.493 4.938 16.594 L 7.719 20.375 L 8.844 25.719 L 8.938 25.688 C 9.013 26.148 9.199 26.535 9.469 26.781 C 9.785 27.07 10.18 27.309 10.625 27.531 C 11.515 27.976 12.691 28.387 14.125 28.75 C 16.993 29.476 20.84 30 25 30 C 29.16 30 33.007 29.476 35.875 28.75 C 37.309 28.387 38.516 27.976 39.406 27.531 C 39.851 27.309 40.215 27.07 40.531 26.781 C 40.801 26.535 40.987 26.148 41.063 25.688 L 41.156 25.719 L 42.25 20.438 L 45.063 16.594 C 45.136 16.49 45.189 16.373 45.219 16.25 L 46.969 9.25 C 46.99 9.168 47 9.084 47 9 C 47 8.432 46.741 8.003 46.438 7.625 C 46.134 7.247 45.746 6.92 45.25 6.563 C 44.258 5.848 42.858 5.108 41.031 4.438 C 37.378 3.096 32.018 2 25 2 Z M 25 4 C 31.809 4 36.954 5.068 40.344 6.313 C 42.039 6.935 43.309 7.622 44.094 8.188 C 44.486 8.47 44.733 8.729 44.875 8.906 C 44.926 8.97 44.958 8.997 44.969 9 L 43.344 15.563 L 41.094 18.625 C 40.917 18.515 40.795 18.44 40.563 18.313 L 39.594 20.063 C 39.879 20.219 40.048 20.327 40.219 20.438 L 39.563 23.5 C 39.467 23.45 39.419 23.428 39.313 23.375 L 38.438 25.156 C 38.703 25.288 38.831 25.373 39 25.469 C 38.874 25.556 38.708 25.646 38.5 25.75 C 37.819 26.091 36.746 26.473 35.406 26.813 C 32.727 27.491 28.987 28 25 28 C 21.013 28 17.273 27.491 14.594 26.813 C 13.254 26.473 12.181 26.091 11.5 25.75 C 11.292 25.646 11.126 25.556 11 25.469 C 11.169 25.373 11.297 25.288 11.563 25.156 L 10.688 23.375 C 10.582 23.428 10.533 23.45 10.438 23.5 L 9.813 20.438 C 9.981 20.329 10.132 20.214 10.406 20.063 L 9.438 18.313 C 9.205 18.44 9.083 18.515 8.906 18.625 L 6.688 15.625 L 5.031 8.969 C 5.044 8.961 5.082 8.959 5.125 8.906 C 5.267 8.729 5.514 8.47 5.906 8.188 C 6.691 7.622 7.961 6.935 9.656 6.313 C 13.046 5.068 18.191 4 25 4 Z M 24 15.031 L 22.406 15.063 L 22.344 15.063 L 21.031 15.188 L 21.219 17.188 L 22.469 17.063 L 22.531 17.063 L 24.063 17.031 L 24 15.031 Z M 26 15.031 L 25.969 17.031 L 27.219 17.063 L 27.25 17.063 L 28.813 17.188 L 28.969 15.188 L 27.375 15.063 L 27.313 15.063 L 26 15.031 Z M 19.063 15.406 L 17.875 15.563 L 17.813 15.594 L 16.125 15.906 L 16.531 17.875 L 18.156 17.563 L 19.344 17.375 L 19.063 15.406 Z M 30.938 15.406 L 30.688 17.375 L 31.156 17.438 L 31.188 17.438 L 32.844 17.75 L 32.875 17.75 L 33.469 17.875 L 33.906 15.938 L 33.281 15.781 L 33.25 15.781 L 31.5 15.469 L 31.438 15.469 L 30.938 15.406 Z M 14.125 16.438 L 12.75 16.875 L 12.688 16.906 L 11.469 17.375 L 11.406 17.375 L 11.281 17.438 L 12.094 19.281 L 12.188 19.25 L 12.219 19.219 L 13.344 18.781 L 13.406 18.75 L 14.75 18.344 L 14.125 16.438 Z M 35.844 16.438 L 35.313 18.344 L 35.719 18.469 L 35.75 18.5 L 36.906 18.875 L 36.938 18.875 L 37.938 19.281 L 38.688 17.438 L 37.625 17 L 37.594 17 L 36.344 16.563 L 36.313 16.563 L 35.844 16.438 Z M 24.969 20.5 L 23.406 20.531 L 23.438 22.531 L 24.969 22.5 L 25 22.5 L 25.031 22.5 L 26.563 22.531 L 26.625 20.531 L 25.031 20.5 L 24.969 20.5 Z M 21.25 20.656 L 20.594 20.719 L 20.531 20.719 L 18.656 20.969 L 18.594 20.969 L 18 21.094 L 18.375 23.063 L 18.906 22.969 L 20.75 22.719 L 20.781 22.719 L 21.406 22.656 L 21.25 20.656 Z M 28.781 20.656 L 28.625 22.656 L 28.719 22.656 L 28.781 22.656 L 30.375 22.844 L 30.438 22.844 L 31.688 23.063 L 32 21.094 L 30.688 20.875 L 30.656 20.875 L 28.938 20.688 L 28.906 20.688 L 28.781 20.656 Z M 15.875 21.531 L 15.344 21.656 L 15.281 21.688 L 13.938 22.063 L 13.906 22.094 L 12.75 22.469 L 13.406 24.375 L 14.5 24 L 14.563 23.969 L 15.781 23.594 L 15.844 23.594 L 16.344 23.469 L 15.875 21.531 Z M 34.156 21.531 L 33.656 23.469 L 34.5 23.688 L 34.531 23.688 L 35.594 24 L 35.594 24.031 L 36.594 24.375 L 37.25 22.469 L 36.25 22.125 L 36.219 22.125 L 35.094 21.781 L 35.031 21.75 L 34.156 21.531 Z M 15.844 32 C 15.19 32.105 14.816 32.805 15.094 33.406 C 15.094 33.406 15.323 33.944 15.563 34.531 C 15.682 34.825 15.824 35.126 15.906 35.375 C 15.974 35.58 15.964 35.693 15.969 35.688 C 15.925 35.741 15.824 36.117 15.625 36.5 C 15.36 37.01 15 37.656 15 38.5 C 15 39.344 15.363 39.984 15.625 40.469 C 15.887 40.953 16 41.334 16 41.25 C 16 41.166 15.798 41.939 15.563 42.5 C 15.327 43.061 15.094 43.563 15.094 43.563 C 14.757 44.26 15.302 45.061 16.074 45.004 C 16.433 44.977 16.75 44.761 16.906 44.438 C 16.906 44.438 17.173 43.911 17.438 43.281 C 17.702 42.652 18 42.071 18 41.25 C 18 40.429 17.613 39.973 17.375 39.531 C 17.137 39.09 17 38.715 17 38.5 C 17 38.285 17.14 37.858 17.375 37.406 C 17.61 36.955 18 36.609 18 35.75 C 18 35.321 17.887 35.072 17.781 34.75 C 17.676 34.428 17.568 34.101 17.438 33.781 C 17.177 33.142 16.906 32.594 16.906 32.594 C 16.727 32.178 16.291 31.935 15.844 32 Z M 33.844 32 C 33.19 32.105 32.816 32.805 33.094 33.406 C 33.094 33.406 33.323 33.944 33.563 34.531 C 33.682 34.825 33.824 35.126 33.906 35.375 C 33.974 35.58 33.964 35.693 33.969 35.688 C 33.925 35.741 33.824 36.117 33.625 36.5 C 33.36 37.01 33 37.656 33 38.5 C 33 39.344 33.363 39.984 33.625 40.469 C 33.887 40.953 34 41.334 34 41.25 C 34 41.166 33.798 41.939 33.563 42.5 C 33.327 43.061 33.094 43.563 33.094 43.563 C 32.757 44.26 33.302 45.061 34.074 45.004 C 34.433 44.977 34.75 44.761 34.906 44.438 C 34.906 44.438 35.173 43.911 35.438 43.281 C 35.702 42.652 36 42.071 36 41.25 C 36 40.429 35.613 39.973 35.375 39.531 C 35.137 39.09 35 38.715 35 38.5 C 35 38.285 35.14 37.858 35.375 37.406 C 35.61 36.955 36 36.609 36 35.75 C 36 35.321 35.887 35.072 35.781 34.75 C 35.676 34.428 35.568 34.101 35.438 33.781 C 35.177 33.142 34.906 32.594 34.906 32.594 C 34.727 32.178 34.291 31.935 33.844 32 Z M 24.969 33.969 C 24.905 33.973 24.843 33.984 24.781 34 C 24.153 34.139 23.817 34.825 24.094 35.406 C 24.094 35.406 24.322 35.949 24.563 36.594 C 24.683 36.916 24.792 37.254 24.875 37.531 C 24.953 37.791 24.995 38.015 25 37.969 C 24.969 37.946 24.824 38.391 24.594 38.875 C 24.33 39.428 24 40.134 24 41 C 24 41.866 24.334 42.537 24.594 43.063 C 24.854 43.588 25 44.013 25 44 C 25 43.987 24.8 44.82 24.563 45.438 C 24.325 46.055 24.094 46.594 24.094 46.594 C 23.698 47.254 24.166 48.095 24.936 48.107 C 25.379 48.114 25.774 47.829 25.906 47.406 C 25.906 47.406 26.175 46.838 26.438 46.156 C 26.7 45.474 27 44.817 27 44 C 27 43.183 26.646 42.672 26.406 42.188 C 26.166 41.703 26 41.289 26 41 C 26 40.711 26.17 40.246 26.406 39.75 C 26.643 39.254 27 38.839 27 38 C 27 37.581 26.917 37.315 26.813 36.969 C 26.708 36.623 26.567 36.253 26.438 35.906 C 26.178 35.212 25.906 34.594 25.906 34.594 C 25.752 34.212 25.38 33.964 24.969 33.969 Z" transform="matrix(-1, 0, 0, -1, 0, 0)"/>
</svg>